<?xml version="1.0" encoding="UTF-8"?>
<svg viewBox="0 0 14 7" version="1.1" xmlns="http://www.w3.org/2000/svg" xmlns:xlink="http://www.w3.org/1999/xlink">
    <g stroke="none" stroke-width="1" fill="none" fill-rule="evenodd">
        <g transform="translate(-319.000000, -383.000000)" fill="#418E42">
            <g transform="translate(-3487.000000, 0.000000)">
                <g transform="translate(3591.000000, 352.000000)">
                    <path d="M224.826154,37.4726472 L225.058576,37.7050685 C225.147118,37.7936102 225.191388,37.8876853 225.191388,37.9872944 C225.191388,38.0869036 225.147118,38.1809787 225.058576,38.2695203 L222.269513,41.0585762 C222.203107,41.1471178 222.114565,41.1913884 222.003888,41.1913884 C221.893211,41.1913884 221.80467,41.1471178 221.738263,41.0585762 L218.949201,38.2695203 C218.860659,38.1809787 218.816388,38.0869036 218.816388,37.9872944 C218.816388,37.8876853 218.860659,37.7936102 218.949201,37.7050685 L219.181623,37.4726472 C219.248029,37.3841056 219.336571,37.339835 219.447248,37.339835 C219.557925,37.339835 219.657534,37.3841056 219.746076,37.4726472 L221.439435,39.1992056 L221.439435,27.1836116 L222.568341,27.1836116 L222.568341,39.1992056 L224.261701,37.4726472 C224.350243,37.3841056 224.449852,37.339835 224.560529,37.339835 C224.671206,37.339835 224.759748,37.3841056 224.826154,37.4726472 Z" transform="translate(222.003888, 34.187500) rotate(-90.000000) translate(-222.003888, -34.187500) "></path>
                </g>
            </g>
        </g>
    </g>
</svg>